# xmcd CD database file
# Copyright (C) 1993-1998 Ti Kan
# 
# Track frame offsets:
#     150
#     17470
#     28242
#     62750
#     78715
#     93605
#     112327
#     125750
#     141905
#     156385
#     173827
#     195442
#     212237
#     226635
#     239572
#     251710
#     262275
#     273165
#     291592
#     306727
# 
# Disc length: 4240 seconds
# 
# Revision: 1
# Processed by: cddbd v1.4b41PL1 Copyright (c) Steve Scherf et al.
# Submitted via: DiscPlay 4.0.4
# 
DISCID=40108e14
DTITLE=Ted Egan - Welcome to the Bush
DYEAR=1900
DGENRE=
TTITLE0=She's On Again in Darwin Town
TTITLE1=The Billabong Song
TTITLE2=Bloody Good Drinkers
TTITLE3=I've Been Everywhere
TTITLE4=MArsupial Joe
TTITLE5=A Town Like Alice
TTITLE6=That's A Camel
TTITLE7=So You Wan't To Be a Truckie
TTITLE8=Buffalo
TTITLE9=Rodeo Hall of Fame
TTITLE10=Curio
TTITLE11=Ride on Little Cowboy
TTITLE12=Urapunga Frog
TTITLE13=Birdsville Races
TTITLE14=Roger Was No Death Adder
TTITLE15=Down On the Daly River
TTITLE16=The Reluctant Saddler
TTITLE17=Arnhem Land Lullaby
TTITLE18=The Man from Humpty Doo
TTITLE19=Waltzing Matilda
EXTD=
EXTT0=
EXTT1=
EXTT2=
EXTT3=
EXTT4=
EXTT5=
EXTT6=
EXTT7=
EXTT8=
EXTT9=
EXTT10=
EXTT11=
EXTT12=
EXTT13=
EXTT14=
EXTT15=
EXTT16=
EXTT17=
EXTT18=
EXTT19=
PLAYORDER=
